<?xml version="1.0" encoding="UTF-8" standalone="no"?>
<!-- Generator: Adobe Illustrator 19.0.0, SVG Export Plug-In . SVG Version: 6.00 Build 0)  -->

<svg
   xmlns:dc="http://purl.org/dc/elements/1.1/"
   xmlns:cc="http://creativecommons.org/ns#"
   xmlns:rdf="http://www.w3.org/1999/02/22-rdf-syntax-ns#"
   xmlns:svg="http://www.w3.org/2000/svg"
   xmlns="http://www.w3.org/2000/svg"
   xmlns:sodipodi="http://sodipodi.sourceforge.net/DTD/sodipodi-0.dtd"
   xmlns:inkscape="http://www.inkscape.org/namespaces/inkscape"
   version="1.1"
   id="Layer_1"
   x="0px"
   y="0px"
   viewBox="0 0 245.75999 150.25153"
   xml:space="preserve"
   sodipodi:docname="clouds1.svg"
   width="245.75999"
   height="150.25153"
   inkscape:version="0.92+devel unknown"><metadata
     id="metadata39"><rdf:RDF><cc:Work
         rdf:about=""><dc:format>image/svg+xml</dc:format><dc:type
           rdf:resource="http://purl.org/dc/dcmitype/StillImage" /><dc:title></dc:title></cc:Work></rdf:RDF></metadata><defs
     id="defs37" /><sodipodi:namedview
     pagecolor="#ffffff"
     bordercolor="#666666"
     inkscape:document-rotation="0"
     borderopacity="1"
     objecttolerance="10"
     gridtolerance="10"
     guidetolerance="10"
     inkscape:pageopacity="0"
     inkscape:pageshadow="2"
     inkscape:window-width="2560"
     inkscape:window-height="1044"
     id="namedview35"
     showgrid="false"
     inkscape:zoom="1.5898438"
     inkscape:cx="122.88"
     inkscape:cy="75.12576"
     inkscape:window-x="0"
     inkscape:window-y="0"
     inkscape:window-maximized="1"
     inkscape:current-layer="Layer_1" /><path
     style="fill:#f5f5f5;stroke-width:2;stroke:#000000;stroke-opacity:1;stroke-miterlimit:4;stroke-dasharray:none"
     d="m 206.10336,150.25152 c 21.90192,0 39.65664,-17.7552 39.65664,-39.65712 0,-18.81408 -13.1064,-34.55712 -30.684,-38.62464 C 214.71648,32.16144 182.34,0 142.44672,0 c -27.3888,0 -51.2328,15.1608 -63.60864,37.54608 -3.7656,-1.6296 -7.91616,-2.5368 -12.27984,-2.5368 -15.72,0 -28.69392,11.72208 -30.68016,26.90016 C 15.42288,65.96544 0,84.0048 0,105.65088 c 0,24.63264 19.96848,44.60064 44.60016,44.60064 6.86112,0 156.80256,0 161.5032,0 z"
     id="path2"
     inkscape:connector-curvature="0" /><g
     id="g4"
     transform="matrix(0.48,0,0,0.48,0,-47.75424)" /><g
     id="g6"
     transform="matrix(0.48,0,0,0.48,0,-47.75424)" /><g
     id="g8"
     transform="matrix(0.48,0,0,0.48,0,-47.75424)" /><g
     id="g10"
     transform="matrix(0.48,0,0,0.48,0,-47.75424)" /><g
     id="g12"
     transform="matrix(0.48,0,0,0.48,0,-47.75424)" /><g
     id="g14"
     transform="matrix(0.48,0,0,0.48,0,-47.75424)" /><g
     id="g16"
     transform="matrix(0.48,0,0,0.48,0,-47.75424)" /><g
     id="g18"
     transform="matrix(0.48,0,0,0.48,0,-47.75424)" /><g
     id="g20"
     transform="matrix(0.48,0,0,0.48,0,-47.75424)" /><g
     id="g22"
     transform="matrix(0.48,0,0,0.48,0,-47.75424)" /><g
     id="g24"
     transform="matrix(0.48,0,0,0.48,0,-47.75424)" /><g
     id="g26"
     transform="matrix(0.48,0,0,0.48,0,-47.75424)" /><g
     id="g28"
     transform="matrix(0.48,0,0,0.48,0,-47.75424)" /><g
     id="g30"
     transform="matrix(0.48,0,0,0.48,0,-47.75424)" /><g
     id="g32"
     transform="matrix(0.48,0,0,0.48,0,-47.75424)" /></svg>