<?xml version="1.0" encoding="UTF-8" standalone="no"?>
<svg
   xmlns:dc="http://purl.org/dc/elements/1.1/"
   xmlns:cc="http://creativecommons.org/ns#"
   xmlns:rdf="http://www.w3.org/1999/02/22-rdf-syntax-ns#"
   xmlns:svg="http://www.w3.org/2000/svg"
   xmlns="http://www.w3.org/2000/svg"
   xmlns:sodipodi="http://sodipodi.sourceforge.net/DTD/sodipodi-0.dtd"
   xmlns:inkscape="http://www.inkscape.org/namespaces/inkscape"
   viewBox="0 0 64.25 64.336999"
   height="64.336998"
   width="64.25"
   xml:space="preserve"
   version="1.1"
   id="svg2"
   sodipodi:docname="gigabit switch atm tag router1.svg"
   inkscape:version="0.92pre3 r"><sodipodi:namedview
     pagecolor="#ffffff"
     bordercolor="#666666"
     borderopacity="1"
     objecttolerance="10"
     gridtolerance="10"
     guidetolerance="10"
     inkscape:pageopacity="0"
     inkscape:pageshadow="2"
     inkscape:window-width="1274"
     inkscape:window-height="672"
     id="namedview53"
     showgrid="false"
     fit-margin-top="0"
     fit-margin-left="0"
     fit-margin-right="0"
     fit-margin-bottom="0"
     inkscape:zoom="5.0467789"
     inkscape:cx="33.017584"
     inkscape:cy="39.844278"
     inkscape:window-x="964"
     inkscape:window-y="182"
     inkscape:window-maximized="0"
     inkscape:current-layer="svg2" /><metadata
     id="metadata8"><rdf:RDF><cc:Work
         rdf:about=""><dc:format>image/svg+xml</dc:format><dc:type
           rdf:resource="http://purl.org/dc/dcmitype/StillImage" /><dc:title></dc:title></cc:Work></rdf:RDF></metadata><defs
     id="defs6"><clipPath
       id="clipPath18"
       clipPathUnits="userSpaceOnUse"><path
         id="path20"
         d="m 0,4.10156 h 370 v 369.898 H 0 Z"
         inkscape:connector-curvature="0" /></clipPath><clipPath
       id="clipPath36"
       clipPathUnits="userSpaceOnUse"><path
         id="path38"
         d="m 224.727,273.313 -10.364,23.484 51.797,10.351 -8.98,-8.054 86.328,-14.739 -20.715,-16.57 -85.813,16.102 -12.253,-10.574"
         inkscape:connector-curvature="0" /></clipPath><clipPath
       id="clipPath48"
       clipPathUnits="userSpaceOnUse"><path
         id="path50"
         d="m 196.406,340.996 58.02,15.879 0.679,-24.863 -14.5,2.765 -28.308,-23.488 -27.024,3.938 29.231,22.976 -18.098,2.793"
         inkscape:connector-curvature="0" /></clipPath><clipPath
       id="clipPath58"
       clipPathUnits="userSpaceOnUse"><path
         id="path60"
         d="m 171.543,251.895 -55.242,-10.352 -2.071,25.547 15.875,-3.445 30.415,25.964 26.914,-4.558 -32.461,-28.313 16.57,-4.843"
         inkscape:connector-curvature="0" /></clipPath><clipPath
       id="clipPath70"
       clipPathUnits="userSpaceOnUse"><path
         id="path72"
         d="M 0,4 V 374 H 370 V 4 Z"
         inkscape:connector-curvature="0" /></clipPath></defs><path
     id="path22"
     style="fill:#3ba1f4;fill-opacity:1;fill-rule:nonzero;stroke:#000000;stroke-width:0.174;stroke-opacity:1;stroke-miterlimit:4;stroke-dasharray:none;paint-order:markers fill stroke;stroke-linejoin:bevel"
     d="m 64.224821,12.768947 c 0,6.870303 -14.29875,12.440119 -31.938328,12.440119 -17.639629,0 -31.9391957,-5.569816 -31.9391957,-12.440119 V 52.26166 c 0,6.870981 14.2995667,12.442225 31.9391957,12.442225 17.639578,0 31.938328,-5.571244 31.938328,-12.442225 V 12.768947"
     inkscape:connector-curvature="0" /><path
     id="path24"
     style="fill:none;stroke:#000000;stroke-width:0.69516051;stroke-linecap:butt;stroke-linejoin:miter;stroke-miterlimit:4;stroke-dasharray:none;stroke-opacity:1"
     d="m 64.224821,12.768947 c 0,6.870303 -14.29875,12.440119 -31.938328,12.440119 -17.639629,0 -31.9391957,-5.569816 -31.9391957,-12.440119 V 52.26166 c 0,6.870981 14.2995667,12.442225 31.9391957,12.442225 17.639578,0 31.938328,-5.571244 31.938328,-12.442225 z"
     inkscape:connector-curvature="0" /><path
     id="path26"
     style="fill:#3ba1f4;fill-opacity:1;fill-rule:nonzero;stroke:none;stroke-width:0.17379013"
     d="m 32.286493,25.209066 c 17.639578,0 31.938328,-5.569816 31.938328,-12.440119 0,-6.8723905 -14.29875,-12.44011912 -31.938328,-12.44011912 -17.639629,0 -31.9391957,5.56772862 -31.9391957,12.44011912 0,6.870303 14.2995667,12.440119 31.9391957,12.440119"
     inkscape:connector-curvature="0" /><path
     id="path28"
     style="fill:none;stroke:#000000;stroke-width:0.69516051;stroke-linecap:butt;stroke-linejoin:miter;stroke-miterlimit:4;stroke-dasharray:none;stroke-opacity:1"
     d="m 32.286493,25.209066 c 17.639578,0 31.938328,-5.569816 31.938328,-12.440119 0,-6.8723905 -14.29875,-12.44011912 -31.938328,-12.44011912 -17.639629,0 -31.9391957,5.56772862 -31.9391957,12.44011912 0,6.870303 14.2995667,12.440119 31.9391957,12.440119 z"
     inkscape:connector-curvature="0" /><g
     id="g32"
     transform="matrix(0.17364865,0,0,-0.17393173,0,65.05039)" /><g
     id="g44"
     transform="matrix(0.17364865,0,0,-0.17393173,0,65.05039)" /><g
     id="g54"
     transform="matrix(0.17364865,0,0,-0.17393173,0,65.05039)" /><g
     id="g66"
     transform="matrix(0.17364865,0,0,-0.17393173,-0.39629223,65.05039)"><g
       id="g4676"
       style="fill:#000000"><path
         id="path74"
         style="fill:#000000;fill-opacity:1;fill-rule:nonzero;stroke:none"
         d="m 196.406,340.996 58.02,15.879 0.679,-24.863 -14.5,2.765 -28.308,-23.488 -27.024,3.938 29.231,22.976 -18.098,2.793"
         inkscape:connector-curvature="0" /><path
         id="path76"
         style="fill:#000000;fill-opacity:1;fill-rule:nonzero;stroke:none"
         d="m 224.727,273.313 -10.364,23.484 51.797,10.351 -8.98,-8.054 86.328,-14.739 -20.715,-16.57 -85.813,16.102 -12.253,-10.574"
         inkscape:connector-curvature="0" /><path
         id="path78"
         style="fill:#000000;fill-opacity:1;fill-rule:nonzero;stroke:none"
         d="m 171.543,251.895 -55.242,-10.352 -2.071,25.547 15.875,-3.445 30.415,25.964 26.914,-4.558 -32.461,-28.313 16.57,-4.843"
         inkscape:connector-curvature="0" /><path
         id="path80"
         style="fill:#000000;fill-opacity:1;fill-rule:nonzero;stroke:none"
         d="m 143.926,328.555 15.183,-22.793 -57.421,-13.262 12.55,10.449 -88.7497,15.168 22.2656,16.688 85.6371,-14.5 10.535,8.25"
         inkscape:connector-curvature="0" /></g><path
       inkscape:connector-curvature="0"
       d="M 283.164,54.082 H 233.562 L 166.238,189.8902 H 114.883"
       style="fill:none;stroke:#000000;stroke-width:14.25;stroke-linecap:butt;stroke-linejoin:miter;stroke-miterlimit:4;stroke-dasharray:none;stroke-opacity:1"
       id="path98" /><g
       id="g4706"><g
         style="fill:#000000;fill-opacity:1"
         id="g4683"><path
           inkscape:connector-curvature="0"
           d="m 279.19373,213.25613 v -47.95 l 28.899,23.028 -28.899,24.922"
           style="fill:#000000;fill-opacity:1;fill-rule:nonzero;stroke:none"
           id="path84" /><path
           inkscape:connector-curvature="0"
           d="m 114.934,32.610782 v 47.9492 l -28.891,-23.0273 28.891,-24.9219"
           style="fill:#000000;fill-opacity:1;fill-rule:nonzero;stroke:none"
           id="path86" /><path
           inkscape:connector-curvature="0"
           d="m 114.934,164.19313 v 47.949 l -28.891,-23.027 28.891,-24.922"
           style="fill:#000000;fill-opacity:1;fill-rule:nonzero;stroke:none"
           id="path92" /><path
           inkscape:connector-curvature="0"
           d="m 281.47588,77.630627 v -47.9492 l 28.899,23.0273 -28.899,24.9219"
           style="fill:#000000;fill-opacity:1;fill-rule:nonzero;stroke:none"
           id="path102" /></g><path
         id="path98-3"
         style="fill:none;stroke:#000000;stroke-width:14.25;stroke-linecap:butt;stroke-linejoin:miter;stroke-miterlimit:4;stroke-dasharray:none;stroke-opacity:1"
         d="m 114.4066,54.676155 h 49.602 l 67.324,135.808195 h 51.355"
         inkscape:connector-curvature="0" /></g></g></svg>