<?xml version="1.0" encoding="UTF-8" standalone="no"?>
<svg
   xmlns:dc="http://purl.org/dc/elements/1.1/"
   xmlns:cc="http://creativecommons.org/ns#"
   xmlns:rdf="http://www.w3.org/1999/02/22-rdf-syntax-ns#"
   xmlns:svg="http://www.w3.org/2000/svg"
   xmlns="http://www.w3.org/2000/svg"
   xmlns:sodipodi="http://sodipodi.sourceforge.net/DTD/sodipodi-0.dtd"
   xmlns:inkscape="http://www.inkscape.org/namespaces/inkscape"
   width="35.96172pt"
   height="52.534561pt"
   viewBox="0 0 35.96172 52.534561"
   version="1.1"
   id="svg101"
   sodipodi:docname="route switch processor.svg"
   inkscape:version="0.92pre3 r">
  <metadata
     id="metadata105">
    <rdf:RDF>
      <cc:Work
         rdf:about="">
        <dc:format>image/svg+xml</dc:format>
        <dc:type
           rdf:resource="http://purl.org/dc/dcmitype/StillImage" />
        <dc:title></dc:title>
      </cc:Work>
    </rdf:RDF>
  </metadata>
  <sodipodi:namedview
     pagecolor="#ffffff"
     bordercolor="#666666"
     borderopacity="1"
     objecttolerance="10"
     gridtolerance="10"
     guidetolerance="10"
     inkscape:pageopacity="0"
     inkscape:pageshadow="2"
     inkscape:window-width="1172"
     inkscape:window-height="480"
     id="namedview103"
     showgrid="false"
     inkscape:zoom="3.9111844"
     inkscape:cx="31.6623"
     inkscape:cy="33.142348"
     inkscape:window-x="347"
     inkscape:window-y="213"
     inkscape:window-maximized="0"
     inkscape:current-layer="surface1"
     fit-margin-top="0"
     fit-margin-left="0"
     fit-margin-right="0"
     fit-margin-bottom="0" />
  <defs
     id="defs26">
    <clipPath
       id="clip1">
      <path
         d="m 42,17 h 5.691406 V 64 H 42 Z m 0,0"
         id="path2"
         inkscape:connector-curvature="0" />
    </clipPath>
    <clipPath
       id="clip2">
      <path
         d="m 38,13 h 9.691406 V 64 H 38 Z m 0,0"
         id="path5"
         inkscape:connector-curvature="0" />
    </clipPath>
    <clipPath
       id="clip3">
      <path
         d="M 0,0 H 47.691406 V 6 H 0 Z m 0,0"
         id="path8"
         inkscape:connector-curvature="0" />
    </clipPath>
    <clipPath
       id="clip4">
      <path
         d="M 0,0 H 47.691406 V 10 H 0 Z m 0,0"
         id="path11"
         inkscape:connector-curvature="0" />
    </clipPath>
    <clipPath
       id="clip5">
      <path
         d="m 42,0 h 5.691406 V 23 H 42 Z m 0,0"
         id="path14"
         inkscape:connector-curvature="0" />
    </clipPath>
    <clipPath
       id="clip6">
      <path
         d="m 38,0 h 9.691406 V 27 H 38 Z m 0,0"
         id="path17"
         inkscape:connector-curvature="0" />
    </clipPath>
    <clipPath
       id="clip7">
      <path
         d="m 42,17 h 5.691406 v 6 H 42 Z m 0,0"
         id="path20"
         inkscape:connector-curvature="0" />
    </clipPath>
    <clipPath
       id="clip8">
      <path
         d="m 38,13 h 9.691406 V 27 H 38 Z m 0,0"
         id="path23"
         inkscape:connector-curvature="0" />
    </clipPath>
  </defs>
  <g
     id="surface1"
     transform="matrix(0.7540652,0,0,0.81887779,-7.0913047e-4,-8.297996e-4)">
    <path
       style="fill:#006b99;fill-opacity:1;fill-rule:nonzero;stroke:#ffffff;stroke-width:4;stroke-linecap:butt;stroke-linejoin:miter;stroke-miterlimit:4;stroke-opacity:1"
       d="M 6.474609,4.790234 H 274.72656 V 272.81367 H 6.474609 Z m 0,0"
       transform="matrix(0.153846,0,0,-0.153846,0,64.584615)"
       id="path28"
       inkscape:connector-curvature="0" />
    <g
       clip-path="url(#clip1)"
       id="g32"
       style="clip-rule:nonzero">
      <path
         style="fill:#006b99;fill-opacity:1;fill-rule:nonzero;stroke:none"
         d="M 47.480469,58.6875 V 17.453125 l -5.214844,5.160156 V 63.847656 L 47.480469,58.6875"
         id="path30"
         inkscape:connector-curvature="0" />
    </g>
    <g
       clip-path="url(#clip2)"
       id="g36"
       style="clip-rule:nonzero">
      <path
         style="fill:none;stroke:#ffffff;stroke-width:4;stroke-linecap:butt;stroke-linejoin:miter;stroke-miterlimit:4;stroke-opacity:1"
         d="M 308.62305,38.33125 V 306.35469 L 274.72656,272.81367 V 4.790234 Z m 0,0"
         transform="matrix(0.153846,0,0,-0.153846,0,64.584615)"
         id="path34"
         inkscape:connector-curvature="0" />
    </g>
    <g
       clip-path="url(#clip3)"
       id="g40"
       style="clip-rule:nonzero">
      <path
         style="fill:#006b99;fill-opacity:1;fill-rule:nonzero;stroke:none"
         d="M 8.542969,0.738281 0.996094,5.898438 h 41.269531 l 5.214844,-5.160157 h -38.9375"
         id="path38"
         inkscape:connector-curvature="0" />
    </g>
    <g
       clip-path="url(#clip4)"
       id="g44"
       style="clip-rule:nonzero">
      <path
         style="fill:none;stroke:#ffffff;stroke-width:4;stroke-linecap:butt;stroke-linejoin:miter;stroke-miterlimit:4;stroke-opacity:1"
         d="M 55.529297,415.00117 6.474609,381.46016 H 274.72656 l 33.89649,33.54101 z m 0,0"
         transform="matrix(0.153846,0,0,-0.153846,0,64.584615)"
         id="path42"
         inkscape:connector-curvature="0" />
    </g>
    <path
       style="fill:#006b99;fill-opacity:1;fill-rule:nonzero;stroke:#ffffff;stroke-width:4;stroke-linecap:butt;stroke-linejoin:miter;stroke-miterlimit:4;stroke-opacity:1"
       d="M 6.474609,272.81367 H 274.72656 V 381.46016 H 6.474609 Z m 0,0"
       transform="matrix(0.153846,0,0,-0.153846,0,64.584615)"
       id="path46"
       inkscape:connector-curvature="0" />
    <g
       clip-path="url(#clip5)"
       id="g50"
       style="clip-rule:nonzero">
      <path
         style="fill:#006b99;fill-opacity:1;fill-rule:nonzero;stroke:none"
         d="M 47.480469,17.453125 V 0.738281 l -5.214844,5.160157 v 16.714843 l 5.214844,-5.160156"
         id="path48"
         inkscape:connector-curvature="0" />
    </g>
    <g
       clip-path="url(#clip6)"
       id="g54"
       style="clip-rule:nonzero">
      <path
         style="fill:none;stroke:#ffffff;stroke-width:4;stroke-linecap:butt;stroke-linejoin:miter;stroke-miterlimit:4;stroke-opacity:1"
         d="M 308.62305,306.35469 V 415.00117 L 274.72656,381.46016 V 272.81367 Z m 0,0"
         transform="matrix(0.153846,0,0,-0.153846,0,64.584615)"
         id="path52"
         inkscape:connector-curvature="0" />
    </g>
    <path
       style="fill:none;stroke:#ffffff;stroke-width:4;stroke-linecap:butt;stroke-linejoin:miter;stroke-miterlimit:4;stroke-opacity:1"
       d="M 274.72656,272.81367 H 6.474609"
       transform="matrix(0.153846,0,0,-0.153846,0,64.584615)"
       id="path56"
       inkscape:connector-curvature="0" />
    <g
       clip-path="url(#clip7)"
       id="g60"
       style="clip-rule:nonzero">
      <path
         style="fill:#006b99;fill-opacity:1;fill-rule:nonzero;stroke:none"
         d="m 42.265625,22.613281 5.214844,-5.160156"
         id="path58"
         inkscape:connector-curvature="0" />
    </g>
    <g
       clip-path="url(#clip8)"
       id="g64"
       style="clip-rule:nonzero">
      <path
         style="fill:none;stroke:#ffffff;stroke-width:4;stroke-linecap:butt;stroke-linejoin:miter;stroke-miterlimit:4;stroke-opacity:1"
         d="m 274.72656,272.81367 33.89649,33.54102"
         transform="matrix(0.153846,0,0,-0.153846,0,64.584615)"
         id="path62"
         inkscape:connector-curvature="0" />
    </g>
    <path
       style="fill:#ffffff;fill-opacity:1;fill-rule:nonzero;stroke:none"
       d="m 7.726562,11.609375 h 6.660157 V 8.144531 H 7.726562 Z m 0,0"
       id="path66"
       inkscape:connector-curvature="0" />
    <path
       style="fill:#ffffff;fill-opacity:1;fill-rule:nonzero;stroke:none"
       d="m 29.601562,11.609375 h 6.65625 V 8.144531 h -6.65625 z m 0,0"
       id="path68"
       inkscape:connector-curvature="0" />
    <path
       style="fill:#ffffff;fill-opacity:1;fill-rule:nonzero;stroke:none"
       d="m 7.726562,20.269531 h 6.660157 V 16.804688 H 7.726562 Z m 0,0"
       id="path70"
       inkscape:connector-curvature="0" />
    <path
       style="fill:#ffffff;fill-opacity:1;fill-rule:nonzero;stroke:none"
       d="m 29.601562,20.269531 h 6.65625 v -3.464843 h -6.65625 z m 0,0"
       id="path72"
       inkscape:connector-curvature="0" />
    <path
       style="fill:none;stroke:#ffffff;stroke-width:4;stroke-linecap:butt;stroke-linejoin:miter;stroke-miterlimit:4;stroke-opacity:1"
       d="M 79.599609,355.6125 H 212.46875"
       transform="matrix(0.153846,0,0,-0.153846,0,64.584615)"
       id="path74"
       inkscape:connector-curvature="0" />
    <path
       style="fill:none;stroke:#ffffff;stroke-width:4;stroke-linecap:butt;stroke-linejoin:miter;stroke-miterlimit:4;stroke-opacity:1"
       d="M 79.599609,299.32148 H 212.46875"
       transform="matrix(0.153846,0,0,-0.153846,0,64.584615)"
       id="path76"
       inkscape:connector-curvature="0" />
    <path
       style="fill:#000000;fill-opacity:1;fill-rule:nonzero;stroke:#ffffff;stroke-width:4;stroke-linecap:butt;stroke-linejoin:miter;stroke-miterlimit:4;stroke-opacity:1"
       d="M 71.880859,299.32148 212.46875,355.6125"
       transform="matrix(0.153846,0,0,-0.153846,0,64.584615)"
       id="path78"
       inkscape:connector-curvature="0" />
    <path
       style="fill:#000000;fill-opacity:1;fill-rule:nonzero;stroke:#ffffff;stroke-width:4;stroke-linecap:butt;stroke-linejoin:miter;stroke-miterlimit:4;stroke-opacity:1"
       d="M 71.880859,355.6125 212.46875,299.32148"
       transform="matrix(0.153846,0,0,-0.153846,0,64.584615)"
       id="path80"
       inkscape:connector-curvature="0" />
    <path
       style="fill:#ffffff;fill-opacity:1;fill-rule:nonzero;stroke:none"
       d="M 22.523438,37.234375 V 28.3125 h 1.515624 L 21.804688,24.945312 19.570312,28.3125 h 1.515626 v 8.921875 h 1.4375"
       id="path82"
       inkscape:connector-curvature="0" />
    <path
       style="fill:#ffffff;fill-opacity:1;fill-rule:nonzero;stroke:none"
       d="m 17.972656,38.523438 -6.308594,-6.308594 1.070313,-1.070313 -3.960937,-0.800781 0.804687,3.960938 1.066406,-1.070313 6.308594,6.308594 1.019531,-1.019531"
       id="path84"
       inkscape:connector-curvature="0" />
    <path
       style="fill:#ffffff;fill-opacity:1;fill-rule:nonzero;stroke:none"
       d="M 15.664062,42.652344 H 6.742188 V 41.140625 L 3.378906,43.375 6.742188,45.605469 V 44.09375 h 8.921874 v -1.441406"
       id="path86"
       inkscape:connector-curvature="0" />
    <path
       style="fill:#ffffff;fill-opacity:1;fill-rule:nonzero;stroke:none"
       d="m 16.953125,47.203125 -6.308594,6.308594 -1.066406,-1.066407 -0.804687,3.957032 3.960937,-0.800782 -1.070313,-1.070312 6.308594,-6.308594 -1.019531,-1.019531"
       id="path88"
       inkscape:connector-curvature="0" />
    <path
       style="fill:#ffffff;fill-opacity:1;fill-rule:nonzero;stroke:none"
       d="m 21.085938,49.511719 v 8.921875 h -1.515626 l 2.234376,3.367187 2.234374,-3.367187 h -1.515624 v -8.921875 h -1.4375"
       id="path90"
       inkscape:connector-curvature="0" />
    <path
       style="fill:#ffffff;fill-opacity:1;fill-rule:nonzero;stroke:none"
       d="m 25.636719,48.222656 6.308593,6.308594 -1.070312,1.070312 3.960938,0.800782 -0.804688,-3.957032 -1.070312,1.066407 -6.308594,-6.308594 -1.015625,1.019531"
       id="path92"
       inkscape:connector-curvature="0" />
    <path
       style="fill:#ffffff;fill-opacity:1;fill-rule:nonzero;stroke:none"
       d="m 27.945312,44.09375 h 8.917969 v 1.511719 L 40.230469,43.375 36.863281,41.140625 v 1.511719 h -8.917969 v 1.441406"
       id="path94"
       inkscape:connector-curvature="0" />
    <path
       style="fill:#ffffff;fill-opacity:1;fill-rule:nonzero;stroke:none"
       d="m 26.652344,39.542969 6.308594,-6.308594 1.070312,1.070313 0.804688,-3.960938 -3.960938,0.800781 1.070312,1.070313 -6.308593,6.308594 1.015625,1.019531"
       id="path96"
       inkscape:connector-curvature="0" />
    <path
       style="fill:#ffffff;fill-opacity:1;fill-rule:nonzero;stroke:none"
       d="m 27.261719,50.851562 c 4.179687,-2.925781 5.195312,-8.6875 2.269531,-12.867187 -2.925781,-4.179687 -8.6875,-5.195313 -12.867188,-2.265625 -4.179687,2.925781 -5.191406,8.6875 -2.265624,12.863281 2.925781,4.179688 8.683593,5.195313 12.863281,2.269531"
       id="path98"
       inkscape:connector-curvature="0" />
  </g>
</svg>
