<?xml version="1.0" encoding="UTF-8" standalone="no"?>
<!-- Created with Inkscape (http://www.inkscape.org/) -->

<svg
   xmlns:dc="http://purl.org/dc/elements/1.1/"
   xmlns:cc="http://creativecommons.org/ns#"
   xmlns:rdf="http://www.w3.org/1999/02/22-rdf-syntax-ns#"
   xmlns:svg="http://www.w3.org/2000/svg"
   xmlns="http://www.w3.org/2000/svg"
   xmlns:sodipodi="http://sodipodi.sourceforge.net/DTD/sodipodi-0.dtd"
   xmlns:inkscape="http://www.inkscape.org/namespaces/inkscape"
   width="11.825098mm"
   height="21.260241mm"
   viewBox="0 0 11.825098 21.260241"
   version="1.1"
   id="svg8"
   inkscape:version="0.92+devel unknown"
   sodipodi:docname="server_5.svg">
  <defs
     id="defs2" />
  <sodipodi:namedview
     id="base"
     pagecolor="#ffffff"
     bordercolor="#666666"
     borderopacity="1.0"
     inkscape:pageopacity="0.0"
     inkscape:pageshadow="2"
     inkscape:zoom="5.6568542"
     inkscape:cx="49.152948"
     inkscape:cy="27.003096"
     inkscape:document-units="mm"
     inkscape:current-layer="layer1"
     inkscape:document-rotation="0"
     showgrid="false"
     fit-margin-top="0"
     fit-margin-left="0"
     fit-margin-right="0"
     fit-margin-bottom="0"
     inkscape:window-width="2560"
     inkscape:window-height="1044"
     inkscape:window-x="0"
     inkscape:window-y="0"
     inkscape:window-maximized="1" />
  <metadata
     id="metadata5">
    <rdf:RDF>
      <cc:Work
         rdf:about="">
        <dc:format>image/svg+xml</dc:format>
        <dc:type
           rdf:resource="http://purl.org/dc/dcmitype/StillImage" />
        <dc:title />
      </cc:Work>
    </rdf:RDF>
  </metadata>
  <g
     inkscape:label="Layer 1"
     inkscape:groupmode="layer"
     id="layer1"
     transform="translate(-70.396503,-137.689)">
    <path
       inkscape:connector-curvature="0"
       style="fill:#d2691e;stroke:#000000;stroke-width:0.23999999;stroke-linecap:round;stroke-linejoin:bevel;stroke-miterlimit:4;stroke-dasharray:none;stroke-opacity:0.94742701;paint-order:markers fill stroke;opacity:0.8"
       d="m 70.757961,137.809 c -0.133844,0 -0.241458,0.15019 -0.241458,0.33687 v 20.3465 c 0,0.18668 0.107614,0.33687 0.241458,0.33687 h 11.102022 c 0.133847,0 0.241618,-0.15019 0.241618,-0.33687 v -20.3465 c 0,-0.18668 -0.107771,-0.33687 -0.241618,-0.33687 z"
       id="rect4269" />
    <g
       id="g4298"
       transform="matrix(0.32455511,0,0,0.30718439,37.344023,111.17862)"
       style="opacity:0.78399999;fill:#ffffff">
      <rect
         ry="1.4279394"
         rx="0.64461339"
         y="102.16303"
         x="106.25414"
         height="6.1021895"
         width="28.217037"
         id="rect4276"
         style="opacity:1;fill:#ffffff;fill-opacity:1;stroke:#920430;stroke-width:0.11860311;stroke-linejoin:bevel;paint-order:markers fill stroke" />
      <rect
         style="opacity:1;fill:#ffffff;fill-opacity:1;stroke:#920430;stroke-width:0.11860311;stroke-linejoin:bevel;paint-order:markers fill stroke"
         id="rect4280"
         width="28.217037"
         height="6.1021895"
         x="106.25414"
         y="113.81793"
         rx="0.64461339"
         ry="1.4279394" />
      <rect
         ry="1.4279394"
         rx="0.64461339"
         y="125.47282"
         x="106.25414"
         height="6.1021895"
         width="28.217037"
         id="rect4282"
         style="opacity:1;fill:#ffffff;fill-opacity:1;stroke:#920430;stroke-width:0.11860311;stroke-linejoin:bevel;paint-order:markers fill stroke" />
      <rect
         style="opacity:1;fill:#ffffff;fill-opacity:1;stroke:#920430;stroke-width:0.11860311;stroke-linejoin:bevel;paint-order:markers fill stroke"
         id="rect4292"
         width="28.217037"
         height="6.1021895"
         x="106.25414"
         y="90.508141"
         rx="0.64461339"
         ry="1.4279394" />
    </g>
    <g
       id="g4342"
       style="fill:#d2691e;opacity:0.808;fill-opacity:1"
       transform="matrix(0.3072,0,0,0.3072,52.866911,102.75549)">
      <path
         d="m 90.153518,121.09827 a 2.0823665,2.0823665 0 0 1 -2.004454,2.0809 2.0823665,2.0823665 0 0 1 -2.154448,-1.92519 2.0823665,2.0823665 0 0 1 1.843234,-2.22497 2.0823665,2.0823665 0 0 1 2.29238,1.7587"
         sodipodi:arc-type="arc"
         sodipodi:open="true"
         sodipodi:end="6.1334884"
         sodipodi:start="0"
         sodipodi:ry="2.0823665"
         sodipodi:rx="2.0823665"
         sodipodi:cy="121.09827"
         sodipodi:cx="88.071152"
         sodipodi:type="arc"
         id="path4300"
         style="opacity:1;fill:#d2691e;fill-opacity:1;stroke:#920430;stroke-width:0.13229166;stroke-linejoin:bevel;paint-order:markers fill stroke" />
      <path
         style="opacity:1;fill:#d2691e;fill-opacity:1;stroke:#920430;stroke-width:0.13229166;stroke-linejoin:bevel;paint-order:markers fill stroke"
         id="path4332"
         sodipodi:type="arc"
         sodipodi:cx="88.071152"
         sodipodi:cy="132.60088"
         sodipodi:rx="2.0823665"
         sodipodi:ry="2.0823665"
         sodipodi:start="0"
         sodipodi:end="6.1334884"
         sodipodi:open="true"
         sodipodi:arc-type="arc"
         d="m 90.153518,132.60088 a 2.0823665,2.0823665 0 0 1 -2.004454,2.0809 2.0823665,2.0823665 0 0 1 -2.154448,-1.92519 2.0823665,2.0823665 0 0 1 1.843234,-2.22497 2.0823665,2.0823665 0 0 1 2.29238,1.75869" />
      <path
         d="m 90.153518,144.47849 a 2.0823665,2.0823665 0 0 1 -2.004454,2.0809 2.0823665,2.0823665 0 0 1 -2.154448,-1.92519 2.0823665,2.0823665 0 0 1 1.843234,-2.22497 2.0823665,2.0823665 0 0 1 2.29238,1.75869"
         sodipodi:arc-type="arc"
         sodipodi:open="true"
         sodipodi:end="6.1334884"
         sodipodi:start="0"
         sodipodi:ry="2.0823665"
         sodipodi:rx="2.0823665"
         sodipodi:cy="144.47849"
         sodipodi:cx="88.071152"
         sodipodi:type="arc"
         id="path4334"
         style="opacity:1;fill:#d2691e;fill-opacity:1;stroke:#920430;stroke-width:0.13229166;stroke-linejoin:bevel;paint-order:markers fill stroke" />
      <path
         style="opacity:1;fill:#d2691e;fill-opacity:1;stroke:#920430;stroke-width:0.13229166;stroke-linejoin:bevel;paint-order:markers fill stroke"
         id="path4336"
         sodipodi:type="arc"
         sodipodi:cx="88.071152"
         sodipodi:cy="155.91229"
         sodipodi:rx="2.0823665"
         sodipodi:ry="2.0823665"
         sodipodi:start="0"
         sodipodi:end="6.1334884"
         sodipodi:open="true"
         sodipodi:arc-type="arc"
         d="m 90.153518,155.91229 a 2.0823665,2.0823665 0 0 1 -2.004454,2.08091 2.0823665,2.0823665 0 0 1 -2.154448,-1.92519 2.0823665,2.0823665 0 0 1 1.843234,-2.22497 2.0823665,2.0823665 0 0 1 2.29238,1.75869" />
    </g>
    <circle
       style="opacity:0.78399999;fill:#ffffff;stroke-width:0.04064;stroke-linejoin:bevel;paint-order:markers fill stroke"
       id="path4325"
       cx="76.457146"
       cy="156.20341"
       r="0.98622447" />
  </g>
</svg>
